custom-analysis
version=1
nRows=4
nColumns=98
inDegrees=no

This file contains tibia displacement and acting force.

Units are S.I. units (seconds, meters, Newtons, ...)
Angles are in degrees.

endheader
time	APT	SIT	knee_angle	aACL_R_force	pACL_R_force	aPCL_R_force	pPCL_R_force	aMCL_R_force	mMCL_R_force	pMCL_R_force	aLCL_R_force	mLCL_R_force	pLCL_R_force	aPCL_L_force	pPCL_L_force	aMCL_L_force	aLCL_L_force	aACL_R_length	pACL_R_length	aPCL_R_length	pPCL_R_length	aMCL_R_length	mMCL_R_length	pMCL_R_length	aLCL_R_length	mLCL_R_length	pLCL_R_length	aPCL_L_length	pPCL_L_length	aMCL_L_length	aLCL_L_length	aACL_R_strain	pACL_R_strain	aPCL_R_strain	pPCL_R_strain	aMCL_R_strain	mMCL_R_strain	pMCL_R_strain	aLCL_R_strain	mLCL_R_strain	pLCL_R_strain	aPCL_L_strain	pPCL_L_strain	aMCL_L_strain	aLCL_L_strain	femur_lat_meniscii_r.femur_lat_r.force.X	femur_lat_meniscii_r.femur_lat_r.force.Y	femur_lat_meniscii_r.femur_lat_r.force.Z	femur_lat_meniscii_r.femur_lat_r.torque.X	femur_lat_meniscii_r.femur_lat_r.torque.Y	femur_lat_meniscii_r.femur_lat_r.torque.Z	femur_lat_meniscii_r.meniscus_lat_r.force.X	femur_lat_meniscii_r.meniscus_lat_r.force.Y	femur_lat_meniscii_r.meniscus_lat_r.force.Z	femur_lat_meniscii_r.meniscus_lat_r.torque.X	femur_lat_meniscii_r.meniscus_lat_r.torque.Y	femur_lat_meniscii_r.meniscus_lat_r.torque.Z	femur_med_meniscii_r.femur_med_r.force.X	femur_med_meniscii_r.femur_med_r.force.Y	femur_med_meniscii_r.femur_med_r.force.Z	femur_med_meniscii_r.femur_med_r.torque.X	femur_med_meniscii_r.femur_med_r.torque.Y	femur_med_meniscii_r.femur_med_r.torque.Z	femur_med_meniscii_r.meniscus_med_r.force.X	femur_med_meniscii_r.meniscus_med_r.force.Y	femur_med_meniscii_r.meniscus_med_r.force.Z	femur_med_meniscii_r.meniscus_med_r.torque.X	femur_med_meniscii_r.meniscus_med_r.torque.Y	femur_med_meniscii_r.meniscus_med_r.torque.Z	femur_med_tibia_r.tibia_upper_r.force.X	femur_med_tibia_r.tibia_upper_r.force.Y	femur_med_tibia_r.tibia_upper_r.force.Z	femur_med_tibia_r.tibia_upper_r.torque.X	femur_med_tibia_r.tibia_upper_r.torque.Y	femur_med_tibia_r.tibia_upper_r.torque.Z	femur_med_tibia_r.femur_med_r.force.X	femur_med_tibia_r.femur_med_r.force.Y	femur_med_tibia_r.femur_med_r.force.Z	femur_med_tibia_r.femur_med_r.torque.X	femur_med_tibia_r.femur_med_r.torque.Y	femur_med_tibia_r.femur_med_r.torque.Z	femur_lat_tibia_r.tibia_upper_r.force.X	femur_lat_tibia_r.tibia_upper_r.force.Y	femur_lat_tibia_r.tibia_upper_r.force.Z	femur_lat_tibia_r.tibia_upper_r.torque.X	femur_lat_tibia_r.tibia_upper_r.torque.Y	femur_lat_tibia_r.tibia_upper_r.torque.Z	femur_lat_tibia_r.femur_lat_r.force.X	femur_lat_tibia_r.femur_lat_r.force.Y	femur_lat_tibia_r.femur_lat_r.force.Z	femur_lat_tibia_r.femur_lat_r.torque.X	femur_lat_tibia_r.femur_lat_r.torque.Y	femur_lat_tibia_r.femur_lat_r.torque.Z	femur_lat_meniscii_force_r	femur_med_meniscii_force_r	femur_lat_tibia_force_r	femur_med_tibia_force_r
      0.76508476	      0.00493978	     -0.00034663	     40.00017107	     54.44900248	     14.16689165	     86.14441227	     29.05607966	      0.00000000	     -0.39160167	      0.00000000	      0.00000000	      0.00000000	      0.00000000	      0.00000000	      0.00000000	      0.00000001	      0.00000000	      0.03363624	      0.02612985	      0.03226817	      0.03037570	      0.05919580	      0.05999036	      0.05813738	      0.05423566	      0.05037350	      0.04609936	      0.01525851	      0.01651186	      0.06550154	      0.04489616	      0.08484763	      0.04274548	      0.03771864	      0.01632438	     -0.01384702	      0.00329236	     -0.01005688	     -0.03111165	     -0.10556189	     -0.11927814	      0.00000079	     -0.32847694	      0.00000060	     -0.00000086	     78.78949563	     69.99552191	     12.95428471	     -7.04448885	      1.96997981	     32.37779628	    -78.78949563	    -69.99552191	    -12.95428471	      2.22313297	     -2.37430923	     -0.86903636	    107.73920255	     48.14515999	      0.95584502	      0.61483392	     -2.22370306	     43.97459401	   -107.73920255	    -48.14515999	     -0.95584502	     -0.86373494	      1.94048641	     -1.65402239	      0.00000000	      0.00000000	      0.00000000	      0.00000000	      0.00000000	      0.00000000	      0.00000000	      0.00000000	      0.00000000	      0.00000000	      0.00000000	      0.00000000	      0.00000000	      0.00000000	      0.00000000	      0.00000000	      0.00000000	      0.00000000	      0.00000000	      0.00000000	      0.00000000	      0.00000000	      0.00000000	      0.00000000	    106.18366731	    118.01104116	      0.00000000	      0.00000000
      0.76537774	      0.00494011	     -0.00034679	     40.00017107	     54.47324054	     14.18564526	     86.15167011	     29.04617516	      0.00000000	     -0.39081069	      0.00000000	      0.00000000	      0.00000000	      0.00000000	      0.00000000	      0.00000000	      0.00000001	      0.00000000	      0.03363659	      0.02613019	      0.03226826	      0.03037573	      0.05919564	      0.05999018	      0.05813720	      0.05423638	      0.05037425	      0.04610010	      0.01525851	      0.01651186	      0.06550154	      0.04489616	      0.08485877	      0.04275905	      0.03772139	      0.01632549	     -0.01384977	      0.00328924	     -0.01005990	     -0.03109866	     -0.10554868	     -0.11926409	      0.00000079	     -0.32847694	      0.00000060	     -0.00000086	     78.76166582	     69.93789972	     12.93588535	     -7.03545312	      1.96912514	     32.36658699	    -78.76166582	    -69.93789972	    -12.93588535	      2.22099711	     -2.37303574	     -0.86945916	    107.77652642	     48.14718309	      0.95464064	      0.61541179	     -2.22459488	     43.99004788	   -107.77652642	    -48.14718309	     -0.95464064	     -0.86387678	      1.94137899	     -1.65501698	      0.00000000	      0.00000000	      0.00000000	      0.00000000	      0.00000000	      0.00000000	      0.00000000	      0.00000000	      0.00000000	      0.00000000	      0.00000000	      0.00000000	      0.00000000	      0.00000000	      0.00000000	      0.00000000	      0.00000000	      0.00000000	      0.00000000	      0.00000000	      0.00000000	      0.00000000	      0.00000000	      0.00000000	    106.12279185	    118.04593270	      0.00000000	      0.00000000
      0.76684265	      0.00494184	     -0.00034758	     40.00017107	     54.56421358	     14.24651103	     86.17609048	     28.98414298	      0.00000000	     -0.41414621	      0.00000000	      0.00000000	      0.00000000	      0.00000000	      0.00000000	      0.00000000	      0.00000001	      0.00000000	      0.03363838	      0.02613195	      0.03226862	      0.03037583	      0.05919480	      0.05998923	      0.05813630	      0.05423999	      0.05037793	      0.04610374	      0.01525851	      0.01651186	      0.06550154	      0.04489616	      0.08491655	      0.04282926	      0.03773298	      0.01632876	     -0.01386372	      0.00327336	     -0.01007529	     -0.03103426	     -0.10548322	     -0.11919445	      0.00000079	     -0.32847694	      0.00000060	     -0.00000086	     78.61611854	     69.70697254	     12.87369478	     -7.00406189	      1.96496362	     32.30737132	    -78.61611854	    -69.70697254	    -12.87369478	      2.21275842	     -2.36725056	     -0.86994071	    107.96110045	     48.18917019	      0.97093192	      0.60976690	     -2.22877149	     44.06616738	   -107.96110045	    -48.18917019	     -0.97093192	     -0.86457405	      1.94519928	     -1.65910529	      0.00000000	      0.00000000	      0.00000000	      0.00000000	      0.00000000	      0.00000000	      0.00000000	      0.00000000	      0.00000000	      0.00000000	      0.00000000	      0.00000000	      0.00000000	      0.00000000	      0.00000000	      0.00000000	      0.00000000	      0.00000000	      0.00000000	      0.00000000	      0.00000000	      0.00000000	      0.00000000	      0.00000000	    105.85503357	    118.23171336	      0.00000000	      0.00000000
      0.77010245	      0.00494589	     -0.00034903	     40.00017107	     54.67694725	     14.29320349	     86.18943381	     28.83700047	      0.00000000	     -0.51742580	      0.00000000	      0.00000000	      0.00000000	      0.00000000	      0.00000000	      0.00000000	      0.00000001	      0.00000000	      0.03364224	      0.02613571	      0.03226905	      0.03037569	      0.05919266	      0.05998683	      0.05813400	      0.05424766	      0.05038579	      0.04611150	      0.01525851	      0.01651186	      0.06550154	      0.04489616	      0.08504114	      0.04297965	      0.03774695	      0.01632391	     -0.01389940	      0.00323322	     -0.01011434	     -0.03089722	     -0.10534368	     -0.11904617	      0.00000079	     -0.32847694	      0.00000060	     -0.00000086	     78.24111583	     69.31048087	     12.80432658	     -6.96565856	      1.95511420	     32.15348565	    -78.24111583	    -69.31048087	    -12.80432658	      2.19955876	     -2.35478178	     -0.86670795	    108.32676300	     48.46259488	      1.06741300	      0.57575672	     -2.23673034	     44.21523455	   -108.32676300	    -48.46259488	     -1.06741300	     -0.86745703	      1.95150946	     -1.66235766	      0.00000000	      0.00000000	      0.00000000	      0.00000000	      0.00000000	      0.00000000	      0.00000000	      0.00000000	      0.00000000	      0.00000000	      0.00000000	      0.00000000	      0.00000000	      0.00000000	      0.00000000	      0.00000000	      0.00000000	      0.00000000	      0.00000000	      0.00000000	      0.00000000	      0.00000000	      0.00000000	      0.00000000	    105.30700710	    118.67792573	      0.00000000	      0.00000000
